<?xml version="1.0" standalone="no"?><!DOCTYPE svg PUBLIC "-//W3C//DTD SVG 1.1//EN" "http://www.w3.org/Graphics/SVG/1.1/DTD/svg11.dtd"><svg t="1643353085486" class="icon" viewBox="0 0 1024 1024" version="1.1" xmlns="http://www.w3.org/2000/svg" p-id="1032" xmlns:xlink="http://www.w3.org/1999/xlink" width="200" height="200"><defs><style type="text/css"></style></defs><path d="M785.5104 659.2512c17.6128 53.76 51.2 119.808 55.3984 181.4528a11.264 11.264 0 0 1-13.2096 11.9808c-41.5744-7.3728-122.88-60.1088-155.9552-78.0288a11.4688 11.4688 0 0 0-17.1008 10.24c0 45.2608-0.8192 141.7216-15.36 180.8384a10.9568 10.9568 0 0 1-16.384 5.4272 175.4112 175.4112 0 0 1-55.808-63.7952 1101.6192 1101.6192 0 0 0-62.5664-93.9008 12.3904 12.3904 0 0 0-20.48 0l-12.3904 17.92-16.384 22.2208-0.7168 1.2288a434.5856 434.5856 0 0 1-78.848 101.1712 11.264 11.264 0 0 1-19.1488-5.7344c-6.656-32.4608-2.1504-61.44-2.4576-95.3344v-26.7264-50.3808a23.2448 23.2448 0 0 0-29.3888-22.528l-6.8608 1.8432c-8.6016 2.3552-17.6128 4.4032-26.7264 6.4512s-121.7536 40.0384-161.9968 42.9056a11.264 11.264 0 0 1-10.24-17.1008c22.1184-36.864 60.3136-90.0096 85.7088-129.2288l15.2576-27.3408 16.384-28.672a11.8784 11.8784 0 0 0-8.0896-17.408c-28.8768-5.8368-87.1424-17.6128-95.3344-19.6608-40.96-15.5648-72.704-8.4992-108.1344-37.9904a11.0592 11.0592 0 0 1 4.096-19.3536c22.528-5.632 67.072-19.3536 67.6864-19.456 8.9088-2.2528 103.6288-33.6896 115.5072-38.4l10.24-4.096a23.04 23.04 0 0 0 11.0592-33.1776 624.0256 624.0256 0 0 1-62.8736-81.92c-22.016-36.7616-53.6576-85.6064-50.5856-100.5568a13.824 13.824 0 0 1 17.7152-10.24c40.96 10.24 142.2336 29.9008 152.7808 32.4608 6.0416 1.4336 12.1856 3.072 18.2272 5.0176A22.8352 22.8352 0 0 0 337.92 237.6704v-1.024-30.72c0-0.8192-11.9808-88.7808-12.6976-131.4816a12.1856 12.1856 0 0 1 20.48-8.6016C394.6496 115.6096 460.8 164.864 508.6208 210.0224a11.9808 11.9808 0 0 0 17.408 0.512l10.8544-10.9568c6.4512-6.4512 99.0208-116.6336 144.6912-146.6368a11.3664 11.3664 0 0 1 17.408 8.4992c3.6864 40.96 0 82.5344 5.4272 121.4464a10.24 10.24 0 0 1 0 1.8432c0 13.9264-0.7168 27.3408-0.9216 39.7312l-0.9216 40.96A23.2448 23.2448 0 0 0 727.04 289.0752l40.96-1.3312c10.24-1.024 20.48-1.6384 30.1056-2.048s92.9792 0 123.6992-1.536a11.3664 11.3664 0 0 1 12.288 14.2336c-6.8608 23.9616-33.4848 48.8448-56.7296 72.2944s-51.2 51.8144-53.9648 55.0912l-5.632 6.2464a22.7328 22.7328 0 0 0 3.9936 33.9968l9.3184 6.4512 1.6384 1.024c8.4992 5.12 16.6912 10.24 25.7024 15.2576 45.2608 23.2448 108.6464 36.5568 142.2336 72.2944a10.9568 10.9568 0 0 1-3.9936 17.5104c-70.8608 28.3648-129.024 31.4368-203.0592 65.6384a11.776 11.776 0 0 0-8.0896 15.0528z" fill="#F15921" p-id="1033"></path><path d="M713.5232 626.688c-43.1104 56.0128-109.1584 102.4-189.6448 104.6528a233.1648 233.1648 0 0 1-53.9648-4.3008c-88.7808-17.8176-168.6528-85.4016-191.0784-176.3328-20.992-113.664 30.72-246.784 162.4064-283.3408a220.5696 220.5696 0 0 1 61.44-11.6736 224.4608 224.4608 0 0 1 51.2 3.584c138.1376 26.8288 248.1152 187.1872 182.272 315.1872a201.216 201.216 0 0 1-22.6304 52.224z" fill="#FAB414" p-id="1034"></path><path d="M424.96 448.8192v20.48a15.36 15.36 0 0 0 30.72 0v-20.48a15.36 15.36 0 0 0-30.72 0zM565.1456 442.7776l4.096 16.896a15.36 15.36 0 1 0 29.5936-8.192l-4.096-16.896a15.36 15.36 0 0 0-29.5936 8.192zM416.4608 561.664c11.8784 46.08 91.5456 34.6112 125.3376 30.208 45.4656-6.0416 95.9488-17.2032 100.9664-70.4512 1.3312-14.7456-21.7088-14.6432-23.04 0-2.2528 23.7568-30.1056 37.888-49.152 42.496a341.9136 341.9136 0 0 1-44.1344 6.8608c-18.6368 1.9456-81.408 9.4208-87.7568-15.2576a11.5712 11.5712 0 0 0-22.2208 6.144z" fill="#3A3635" p-id="1035"></path></svg>